<svg width="70" height="47" viewBox="0 0 70 47" fill="none" xmlns="http://www.w3.org/2000/svg">
  <g clip-path="url(#clip0_12_7)">
    <path d="M40.6622 35.6965H44.7281V39.7914H40.6622V35.6965ZM54.7167 35.6965H58.7825V39.7914H54.7167V35.6965ZM51.3061 21.1735V17.0806H45.6711V19.0742L47.7731 21.1755L51.3061 21.1735Z" fill="#435ebe"/>
    <path d="M65.24 43.3027V34.6684H66.5331L67.7347 33.4718L53.4975 19.1329H51.73V21.618H47.5883L45.1208 19.1329H38.2842L24.0625 33.4562L25.2642 34.6664H27.1678V43.3007H23.4519C17.8947 37.9466 16.4169 25.803 16.9361 16.7692L17.0275 16.5851H17.0722C19.5028 16.5851 21.6572 17.7719 22.9989 19.601L23.0125 19.6205C24.0236 20.9973 24.6322 22.7304 24.6322 24.6045C24.6322 25.897 24.3444 27.121 23.8272 28.2157L23.8486 28.1648C24.9338 27.8849 25.9425 27.3629 26.8003 26.6373L26.7886 26.647C27.6817 25.8641 28.3975 24.8972 28.8876 23.8117C29.3776 22.7262 29.6306 21.5474 29.6294 20.3549C29.6294 18.4847 29.0189 16.7594 27.9883 15.369L28.0039 15.3905C27.1197 14.1487 25.8691 13.2192 24.4302 12.7344C22.9912 12.2495 21.4371 12.234 19.9889 12.69L20.0394 12.6763C20.5547 12.3532 21.1478 12.0673 21.7719 11.8499L21.8342 11.8303C22.6825 11.5147 23.5801 11.3549 24.4844 11.3583C26.5903 11.3583 28.4978 12.2063 29.8919 13.5791L29.89 13.5771C30.0966 12.4787 30.0345 11.3462 29.7092 10.2773L29.7228 10.3263C29.4004 9.3738 28.8888 8.49737 28.2192 7.7504C27.5497 7.00343 26.7362 6.40155 25.8282 5.98144C24.9202 5.56132 23.9369 5.33175 22.938 5.30672C21.9391 5.28169 20.9456 5.46172 20.0181 5.83584L20.0667 5.81821C19.5975 5.9811 19.1412 6.17945 18.7017 6.41159L18.7581 6.38417C18.6257 5.77172 18.4295 5.17504 18.1728 4.60405L18.1961 4.66084C16.485 0.797046 12.5611 -1.02812 9.42472 0.567921C8.57772 1.00402 7.84994 1.64285 7.30528 2.42834L7.29361 2.44792C8.39748 2.55701 9.4608 2.92417 10.3989 3.52017C11.337 4.11616 12.124 4.92452 12.6972 5.88088L12.7147 5.91221C11.9871 5.54536 11.217 5.27104 10.4222 5.09559L10.3561 5.08384C5.53389 4.04005 0.945002 6.67792 0.122502 10.9882C-0.097265 12.1706 -0.0244728 13.3894 0.334447 14.5367L0.320836 14.4858C1.39914 13.2529 2.79473 12.344 4.35355 11.8595C5.91237 11.375 7.5738 11.3337 9.15445 11.7402L9.09222 11.7265C9.8875 11.8949 10.5914 12.1378 11.2506 12.457L11.1942 12.4315C9.6166 12.2198 8.01221 12.4869 6.58617 13.1986C5.16013 13.9102 3.97728 15.0341 3.18889 16.4265L3.1675 16.4657C2.34436 17.8623 1.91229 19.4574 1.91722 21.0815C1.91722 24.1521 3.42806 26.8664 5.74389 28.5114L5.77306 28.531C6.76956 29.2048 7.90651 29.639 9.09611 29.8L9.13695 29.8039C8.27906 28.3723 7.82776 26.731 7.83222 25.0588C7.83222 23.3492 8.29306 21.7473 9.09806 20.3745L9.07472 20.4176C9.67276 19.3692 10.4927 18.4663 11.4764 17.7731C12.4601 17.08 13.5832 16.6135 14.7661 16.4069L14.8147 16.3991C12.0594 29.0362 11.2972 37.8409 13.5703 43.2988H6.9475V46.9804H69.4575V43.2988H65.24V43.3027ZM49.7817 34.8681H63.7156V43.3027H49.7817V34.8681ZM28.6631 33.1957L38.2881 23.502L47.9131 33.1957V43.3027H37.345V35.6965H31.9997V43.3027H28.6514V33.1957H28.6631Z" fill="#435ebe"/>
  </g>
  <defs>
    <clipPath id="clip0_12_7">
      <rect width="70" height="47" fill="white"/>
    </clipPath>
  </defs>
</svg>
